<svg width="512" height="512" viewBox="0 0 512 512" fill="none" xmlns="http://www.w3.org/2000/svg">
<path fill-rule="evenodd" clip-rule="evenodd" d="M256.083 221.929C241.128 221.763 227.496 215.688 219.859 207.093C207.637 193.34 205.427 171.353 206.734 146.473C231.854 111.757 280.318 111.781 305.434 146.49C306.741 171.369 304.53 193.357 292.309 207.11C284.672 215.704 271.038 221.763 256.083 221.929" fill="#F5D85A"/>
<path fill-rule="evenodd" clip-rule="evenodd" d="M256.083 215.885C251.203 215.95 245.811 214.58 240.929 211.812C225.964 213.538 219.405 203.36 219.452 193.35C209.454 191.514 215.868 183.099 214.603 174.268C213.11 163.851 212.253 154.022 219.643 151.839C223.119 150.813 228.1 156.008 227.271 159.589L228.81 152.945C232.076 138.85 245.178 135.26 256.083 135.109C266.92 134.958 278.621 140.049 283.032 152.972L284.403 158.09C285.312 153.355 286.837 148.405 292.146 149.574C300.83 151.485 298.049 163.242 296.623 175.279C295.659 183.42 302.626 191.121 292.545 192.479C294.725 201.549 284.735 212.706 271.878 211.79C265.686 215.538 259.886 215.848 256.083 215.885" fill="#FA2811"/>
<path d="M256.083 215.885C251.203 215.95 245.811 214.58 240.929 211.812C225.964 213.538 219.405 203.36 219.452 193.35C209.454 191.514 215.868 183.099 214.603 174.268C213.11 163.851 212.253 154.022 219.643 151.839C223.119 150.813 228.1 156.008 227.271 159.589L228.81 152.945C232.076 138.85 245.178 135.26 256.083 135.109C266.92 134.958 278.621 140.049 283.032 152.972L284.403 158.09C285.312 153.355 286.837 148.405 292.146 149.574C300.83 151.485 298.049 163.242 296.623 175.279C295.659 183.42 302.626 191.121 292.545 192.479C294.725 201.549 284.735 212.706 271.878 211.79C265.686 215.538 259.886 215.848 256.083 215.885V215.885Z" stroke="#CE1920" stroke-width="0.377947" stroke-miterlimit="22.9256" stroke-linecap="round" stroke-linejoin="round"/>
<path fill-rule="evenodd" clip-rule="evenodd" d="M237.973 206.738C231.714 207.959 229.122 202.47 230.347 199.177L235.749 184.66C236.476 182.704 239.287 181.636 241.467 181.636C246.453 181.636 246.286 183.923 256.083 184.025C265.88 183.923 265.715 181.636 270.7 181.636C272.88 181.636 275.691 182.704 276.418 184.66L281.82 199.177C283.045 202.47 280.469 207.876 274.194 206.738C257.631 203.735 253.243 203.762 237.973 206.738" fill="white"/>
<path d="M237.973 206.738C231.714 207.959 229.122 202.47 230.347 199.177L235.749 184.66C236.476 182.704 239.287 181.636 241.467 181.636C246.453 181.636 246.286 183.923 256.083 184.025C265.88 183.923 265.715 181.636 270.7 181.636C272.88 181.636 275.691 182.704 276.418 184.66L281.82 199.177C283.045 202.47 280.469 207.876 274.194 206.738C257.631 203.735 253.243 203.762 237.973 206.738V206.738Z" stroke="#AA151A" stroke-width="0.288" stroke-miterlimit="22.9256" stroke-linecap="round" stroke-linejoin="round"/>
<path d="M240.838 212.195C239.5 212.457 238.029 212.595 236.383 212.552C234.997 212.516 233.683 212.345 232.449 212.06C228.008 211.032 224.519 208.517 222.164 205.36L222.163 205.361C219.81 202.204 218.591 198.397 218.686 194.788C218.712 193.835 218.828 192.898 219.036 191.993L226.917 157.932C226.99 157.609 227.311 157.407 227.634 157.48C227.813 157.522 227.955 157.639 228.032 157.79C229.232 159.838 230.406 161.539 231.666 162.697C232.862 163.798 234.141 164.401 235.607 164.33C236.566 164.284 237.566 163.988 238.656 163.665C240.376 163.157 242.316 162.584 244.844 162.71C246.612 162.798 248.621 163.592 250.348 164.749C252.071 165.903 253.538 167.435 254.231 169.009C254.312 169.189 254.294 169.388 254.202 169.547C253.347 171.257 251.314 173.157 248.853 174.63C246.58 175.988 243.924 177.001 241.477 177.177C241.112 177.202 240.745 177.208 240.377 177.194H240.371C236.747 177.052 233.573 174.946 231.24 171.839C229.145 169.051 227.723 165.45 227.263 161.75L220.204 192.26C220.011 193.094 219.905 193.952 219.884 194.818C219.795 198.162 220.931 201.7 223.125 204.644H223.124L223.125 204.645C225.32 207.588 228.572 209.932 232.716 210.892C233.883 211.161 235.116 211.322 236.41 211.356C241.83 211.498 245.289 209.523 248.365 207.766C254.782 204.102 257.288 204.076 263.735 207.757C266.809 209.513 270.269 211.488 275.688 211.347C276.983 211.313 278.218 211.152 279.382 210.882C283.527 209.923 286.78 207.578 288.973 204.635L288.974 204.634H288.973C291.167 201.69 292.305 198.152 292.216 194.808C292.194 193.942 292.087 193.084 291.895 192.25L284.835 161.74C284.378 165.44 282.954 169.043 280.86 171.83C278.525 174.936 275.352 177.041 271.73 177.184H271.723C271.354 177.199 270.987 177.193 270.624 177.167C268.176 176.991 265.518 175.98 263.247 174.62C260.784 173.148 258.753 171.247 257.896 169.538C257.805 169.379 257.788 169.179 257.867 168.999C258.562 167.425 260.028 165.893 261.751 164.74C263.477 163.582 265.486 162.79 267.254 162.701C269.784 162.574 271.723 163.147 273.442 163.655C274.532 163.978 275.532 164.275 276.493 164.321C277.957 164.392 279.237 163.789 280.433 162.687C281.694 161.529 282.868 159.828 284.066 157.781C284.144 157.629 284.285 157.512 284.465 157.471C284.788 157.398 285.11 157.599 285.183 157.922L293.062 191.983C293.272 192.888 293.387 193.825 293.412 194.78C293.507 198.387 292.288 202.195 289.935 205.351L289.934 205.35C287.58 208.507 284.09 211.022 279.65 212.05C278.415 212.335 277.102 212.506 275.715 212.543C274.423 212.577 273.239 212.498 272.143 212.335C272.106 212.367 272.067 212.395 272.023 212.418C269.795 213.59 266.984 214.674 264.035 215.431C261.391 216.111 258.631 216.528 256.082 216.511C253.386 216.492 250.685 216.098 248.11 215.367C245.527 214.635 243.059 213.564 240.838 212.195" fill="#03124D"/>
<path d="M240.838 212.195C239.5 212.457 238.029 212.595 236.383 212.552C234.997 212.516 233.683 212.345 232.449 212.06C228.008 211.032 224.519 208.517 222.164 205.36L222.163 205.361C219.81 202.204 218.591 198.397 218.686 194.788C218.712 193.835 218.828 192.898 219.036 191.993L226.917 157.932C226.99 157.609 227.311 157.407 227.634 157.48C227.813 157.522 227.955 157.639 228.032 157.79C229.232 159.838 230.406 161.539 231.666 162.697C232.862 163.798 234.141 164.401 235.607 164.33C236.566 164.284 237.566 163.988 238.656 163.665C240.376 163.157 242.316 162.584 244.844 162.71C246.612 162.798 248.621 163.592 250.348 164.749C252.071 165.903 253.538 167.435 254.231 169.009C254.312 169.189 254.294 169.388 254.202 169.547C253.347 171.257 251.314 173.157 248.853 174.63C246.58 175.988 243.924 177.001 241.477 177.177C241.112 177.202 240.745 177.208 240.377 177.194H240.371C236.747 177.052 233.573 174.946 231.24 171.839C229.145 169.051 227.723 165.45 227.263 161.75L220.204 192.26C220.011 193.094 219.905 193.952 219.884 194.818C219.795 198.162 220.931 201.7 223.125 204.644H223.124L223.125 204.645C225.32 207.588 228.572 209.932 232.716 210.892C233.883 211.161 235.116 211.322 236.41 211.356C241.83 211.498 245.289 209.523 248.365 207.766C254.782 204.102 257.288 204.076 263.735 207.757C266.809 209.513 270.269 211.488 275.688 211.347C276.983 211.313 278.218 211.152 279.382 210.882C283.527 209.923 286.78 207.578 288.973 204.635L288.974 204.634H288.973C291.167 201.69 292.305 198.152 292.216 194.808C292.194 193.942 292.087 193.084 291.895 192.25L284.835 161.74C284.378 165.44 282.954 169.043 280.86 171.83C278.525 174.936 275.352 177.041 271.73 177.184H271.723C271.354 177.199 270.987 177.193 270.624 177.167C268.176 176.991 265.518 175.98 263.247 174.62C260.784 173.148 258.753 171.247 257.896 169.538C257.805 169.379 257.788 169.179 257.867 168.999C258.562 167.425 260.028 165.893 261.751 164.74C263.477 163.582 265.486 162.79 267.254 162.701C269.784 162.574 271.723 163.147 273.442 163.655C274.532 163.978 275.532 164.275 276.493 164.321C277.957 164.392 279.237 163.789 280.433 162.687C281.694 161.529 282.868 159.828 284.066 157.781C284.144 157.629 284.285 157.512 284.465 157.471C284.788 157.398 285.11 157.599 285.183 157.922L293.062 191.983C293.272 192.888 293.387 193.825 293.412 194.78C293.507 198.387 292.288 202.195 289.935 205.351L289.934 205.35C287.58 208.507 284.09 211.022 279.65 212.05C278.415 212.335 277.102 212.506 275.715 212.543C274.423 212.577 273.239 212.498 272.143 212.335C272.106 212.367 272.067 212.395 272.023 212.418C269.795 213.59 266.984 214.674 264.035 215.431C261.391 216.111 258.631 216.528 256.082 216.511C253.386 216.492 250.685 216.098 248.11 215.367C245.527 214.635 243.059 213.564 240.838 212.195V212.195Z" stroke="#03124D" stroke-width="0.94488" stroke-miterlimit="22.9256" stroke-linecap="round" stroke-linejoin="round"/>
<path d="M248.955 208.808C247.064 209.887 245.034 211.047 242.511 211.787C244.354 212.806 246.353 213.624 248.433 214.214C250.914 214.916 253.507 215.297 256.086 215.315C258.531 215.331 261.188 214.929 263.741 214.274C266.078 213.671 268.327 212.858 270.252 211.957C267.415 211.237 265.197 209.972 263.143 208.799C257.11 205.353 255.017 205.347 248.955 208.808" fill="#FA2811"/>
<path d="M230.855 163.58C229.984 162.779 229.161 161.755 228.351 160.556L228.352 160.57C228.628 164.423 230.032 168.241 232.196 171.121C234.324 173.952 237.185 175.872 240.416 175.998H240.423C240.736 176.01 241.059 176.004 241.392 175.981C243.644 175.819 246.113 174.874 248.237 173.604C250.403 172.308 252.192 170.69 253.012 169.235C252.368 167.96 251.131 166.714 249.683 165.744C248.122 164.699 246.334 163.984 244.788 163.906C242.461 163.791 240.622 164.333 238.995 164.815C237.834 165.159 236.771 165.473 235.663 165.526C233.843 165.616 232.286 164.896 230.855 163.58" fill="white"/>
<path d="M281.245 163.57C279.813 164.887 278.257 165.606 276.435 165.517C275.328 165.463 274.264 165.149 273.105 164.805C271.476 164.323 269.639 163.781 267.311 163.898C265.765 163.975 263.977 164.689 262.416 165.735C260.968 166.704 259.732 167.952 259.087 169.225C259.907 170.68 261.697 172.298 263.861 173.594C265.986 174.864 268.455 175.809 270.706 175.971C271.039 175.994 271.364 176 271.674 175.987H271.682C274.912 175.863 277.774 173.944 279.902 171.112C282.068 168.231 283.471 164.415 283.748 160.56L283.749 160.547C282.938 161.745 282.115 162.769 281.245 163.57" fill="white"/>
<path fill-rule="evenodd" clip-rule="evenodd" d="M241.061 201.344C236.743 201.948 237.645 198.742 238.483 196.49L242.177 186.562C242.674 185.224 244.597 184.494 246.089 184.494C249.497 184.494 249.384 185.423 256.083 185.492C262.784 185.423 262.67 184.494 266.08 184.494C267.571 184.494 269.494 185.224 269.991 186.562L273.685 196.49C274.523 198.742 275.488 202.137 271.171 201.534C258.995 199.833 253.2 199.645 241.061 201.344Z" fill="#03124D"/>
<path fill-rule="evenodd" clip-rule="evenodd" d="M265.729 192.073L270.383 198.559H265.729V192.073ZM260.975 195.978H264.41V198.559H260.975V195.978ZM256.58 195.978H260.014V198.559H256.58V195.978ZM251.998 195.978H255.434V198.559H251.998V195.978ZM247.566 195.978H251V198.559H247.566V195.978ZM246.32 192.073L241.665 198.559H246.32V192.073Z" fill="white"/>
<path d="M265.729 192.073L270.383 198.559H265.729V192.073ZM260.975 195.978H264.41V198.559H260.975V195.978ZM256.58 195.978H260.014V198.559H256.58V195.978ZM251.998 195.978H255.434V198.559H251.998V195.978ZM247.566 195.978H251V198.559H247.566V195.978ZM246.32 192.073L241.665 198.559H246.32V192.073Z" stroke="white" stroke-width="0.288" stroke-miterlimit="22.9256" stroke-linecap="round" stroke-linejoin="round"/>
<path fill-rule="evenodd" clip-rule="evenodd" d="M264.621 191.168L268.702 187.116H264.621V191.168ZM260.452 188.728H263.464V187.116H260.452V188.728ZM256.597 188.728H259.61V187.116H256.597V188.728ZM252.581 188.728H255.592V187.116H252.581V188.728ZM248.693 188.728H251.706V187.116H248.693V188.728ZM247.601 191.168L243.521 187.116H247.601V191.168Z" fill="white"/>
<path d="M264.621 191.168L268.702 187.116H264.621V191.168ZM260.452 188.728H263.464V187.116H260.452V188.728ZM256.597 188.728H259.61V187.116H256.597V188.728ZM252.581 188.728H255.592V187.116H252.581V188.728ZM248.693 188.728H251.706V187.116H248.693V188.728ZM247.601 191.168L243.521 187.116H247.601V191.168Z" stroke="white" stroke-width="0.288" stroke-miterlimit="22.9256" stroke-linecap="round" stroke-linejoin="round"/>
<path fill-rule="evenodd" clip-rule="evenodd" d="M255.802 191.046C258.992 191.046 263.236 192.932 264.291 194.921H247.624C248.961 192.994 252.612 191.046 255.802 191.046" fill="#FA2811"/>
<path fill-rule="evenodd" clip-rule="evenodd" d="M229.026 153.499C231.069 155.363 233.111 156.74 235.466 156.822C238.47 156.926 241.5 155.384 244.484 155.741C251.154 156.537 254.898 162.645 254.802 168.532C252.944 165.089 248.739 162.242 244.625 162.142C240.703 162.046 237.947 164 235.519 163.92C232.84 163.831 229.917 160.243 228.249 156.89C228.532 155.345 228.794 154.655 229.026 153.499" fill="white"/>
<path fill-rule="evenodd" clip-rule="evenodd" d="M283.079 153.426C281.035 155.29 278.992 156.667 276.638 156.75C273.633 156.854 270.604 155.313 267.621 155.669C260.949 156.465 257.205 162.572 257.302 168.46C259.161 165.016 263.366 162.171 267.48 162.07C271.402 161.975 274.156 163.929 276.586 163.848C279.264 163.759 282.188 160.171 283.856 156.818C283.573 155.273 283.311 154.582 283.079 153.426" fill="white"/>
<path d="M242.051 164C243.505 164 244.822 164.591 245.774 165.542C246.726 166.493 247.316 167.81 247.316 169.265C247.316 170.718 246.726 172.036 245.774 172.988C244.822 173.94 243.505 174.53 242.051 174.53C240.596 174.53 239.281 173.94 238.329 172.988C237.376 172.036 236.787 170.718 236.787 169.265C236.787 167.81 237.376 166.493 238.329 165.542C239.281 164.591 240.596 164 242.051 164ZM244.924 166.391C244.189 165.656 243.172 165.2 242.051 165.2C240.929 165.2 239.912 165.656 239.177 166.391C238.442 167.126 237.987 168.143 237.987 169.265C237.987 170.386 238.442 171.403 239.177 172.138C239.912 172.873 240.929 173.328 242.051 173.328C243.172 173.328 244.189 172.873 244.924 172.138C245.66 171.403 246.115 170.386 246.115 169.265C246.115 168.143 245.66 167.126 244.924 166.391Z" fill="#03124D"/>
<path fill-rule="evenodd" clip-rule="evenodd" d="M242.051 167.993C242.754 167.993 243.324 168.562 243.324 169.264C243.324 169.967 242.754 170.537 242.051 170.537C241.349 170.537 240.779 169.967 240.779 169.264C240.779 168.562 241.349 167.993 242.051 167.993Z" fill="#03124D"/>
<path d="M270.137 163.866C268.684 163.866 267.366 164.456 266.415 165.409C265.462 166.361 264.873 167.677 264.873 169.132C264.873 170.585 265.462 171.901 266.415 172.854C267.366 173.806 268.684 174.396 270.137 174.396C271.59 174.396 272.908 173.806 273.861 172.854C274.813 171.901 275.403 170.585 275.403 169.132C275.403 167.677 274.813 166.361 273.861 165.409C272.908 164.456 271.59 163.866 270.137 163.866ZM267.264 166.258C267.998 165.523 269.016 165.067 270.137 165.067C271.259 165.067 272.276 165.523 273.011 166.258C273.746 166.993 274.201 168.009 274.201 169.132C274.201 170.253 273.746 171.269 273.011 172.005C272.276 172.74 271.259 173.195 270.137 173.195C269.016 173.195 267.998 172.74 267.264 172.005C266.529 171.269 266.073 170.253 266.073 169.132C266.073 168.009 266.529 166.993 267.264 166.258Z" fill="#03124D"/>
<path fill-rule="evenodd" clip-rule="evenodd" d="M270.137 167.859C269.434 167.859 268.866 168.428 268.866 169.132C268.866 169.834 269.434 170.403 270.137 170.403C270.839 170.403 271.409 169.834 271.409 169.132C271.409 168.428 270.839 167.859 270.137 167.859Z" fill="#03124D"/>
<path fill-rule="evenodd" clip-rule="evenodd" d="M219.747 167.338C220.54 165.028 222.329 164.999 222.186 160.526C221.918 158.174 218.57 158.186 217.931 161.116C217.653 167.902 217.161 183.037 217.856 181.532C218.557 180.011 218.893 169.478 219.747 167.338Z" fill="#AA151A"/>
<path fill-rule="evenodd" clip-rule="evenodd" d="M291.171 167.338C290.377 165.028 288.589 164.999 288.731 160.526C289.001 158.174 292.346 158.186 292.986 161.116C293.265 167.902 293.758 183.037 293.062 181.532C292.361 180.011 292.023 169.478 291.171 167.338Z" fill="#AA151A"/>
<path fill-rule="evenodd" clip-rule="evenodd" d="M256.513 136.455C257.927 137.693 259.124 139.527 259.972 141.574C260.835 143.664 261.34 145.99 261.34 148.138C261.34 150.263 260.76 152.758 259.873 154.96C258.972 157.196 257.741 159.157 256.454 160.166C256.223 160.349 255.896 160.332 255.684 160.141C254.371 159.063 253.087 157.093 252.152 154.839C251.262 152.69 250.678 150.265 250.678 148.094C250.678 145.785 251.091 143.498 251.977 141.431C252.798 139.512 254.026 137.785 255.705 136.41C255.947 136.211 256.298 136.234 256.513 136.455" fill="#03124D"/>
<path fill-rule="evenodd" clip-rule="evenodd" d="M258.864 142.029C258.156 140.317 257.194 138.779 256.07 137.677C254.746 138.865 253.759 140.31 253.077 141.9C252.26 143.809 251.878 145.936 251.878 148.094C251.878 150.111 252.426 152.371 253.259 154.383C254.033 156.252 255.047 157.891 256.087 158.897C257.076 157.945 258.027 156.339 258.762 154.514C259.594 152.446 260.139 150.114 260.139 148.138C260.139 146.141 259.669 143.977 258.864 142.029" fill="white"/>
<path fill-rule="evenodd" clip-rule="evenodd" d="M256.045 143.638C257.16 143.638 258.166 144.167 258.888 145.022C259.587 145.851 260.018 146.987 260.018 148.237C260.018 149.485 259.587 150.623 258.888 151.451C258.166 152.305 257.16 152.836 256.045 152.836C254.928 152.836 253.922 152.305 253.201 151.451C252.502 150.623 252.069 149.485 252.069 148.237C252.069 146.987 252.502 145.851 253.201 145.022C253.922 144.167 254.928 143.638 256.045 143.638Z" fill="#03124D"/>
<path fill-rule="evenodd" clip-rule="evenodd" d="M257.972 145.796C257.473 145.206 256.79 144.839 256.044 144.839C255.296 144.839 254.614 145.206 254.115 145.796C253.592 146.415 253.271 147.277 253.271 148.237C253.271 149.195 253.592 150.058 254.115 150.677C254.614 151.268 255.296 151.635 256.044 151.635C256.79 151.635 257.473 151.268 257.972 150.677C258.495 150.058 258.818 149.195 258.818 148.237C258.818 147.277 258.495 146.415 257.972 145.796Z" fill="white"/>
<path fill-rule="evenodd" clip-rule="evenodd" d="M256.1 147.471C256.585 147.471 256.979 147.877 256.979 148.378C256.979 148.879 256.585 149.286 256.1 149.286C255.615 149.286 255.221 148.879 255.221 148.378C255.221 147.877 255.615 147.471 256.1 147.471Z" fill="#03124D"/>
<path d="M254.771 103.592L255.577 102.518C255.618 102.452 255.674 102.393 255.741 102.346C256.014 102.156 256.389 102.225 256.576 102.495C256.94 103.016 257.28 103.499 257.617 103.978C260.902 108.63 264.211 113.315 264.211 118.817C264.211 120.843 263.168 123.025 261.629 124.699C260.118 126.341 258.106 127.514 256.108 127.596L255.878 127.603V127.601C253.922 127.599 251.813 126.595 250.185 125.114C248.548 123.625 247.373 121.633 247.294 119.669V119.658L247.291 119.523L247.288 119.455C247.288 113.537 251.165 108.383 254.771 103.592" fill="#03124D"/>
<path d="M256.066 103.858L255.727 104.31C252.238 108.944 248.488 113.929 248.488 119.455L248.487 119.494L248.488 119.623H248.489C248.555 121.248 249.572 122.935 250.991 124.227C252.417 125.525 254.231 126.405 255.877 126.405V126.401L256.06 126.4C257.722 126.333 259.433 125.315 260.746 123.886C262.096 122.419 263.009 120.536 263.009 118.817C263.009 113.694 259.811 109.165 256.637 104.668L256.066 103.858" fill="white"/>
<path d="M255.039 110.933L255.391 110.445C255.435 110.376 255.492 110.314 255.563 110.267C255.837 110.082 256.211 110.155 256.396 110.428L256.861 111.118H256.86C258.356 113.328 259.865 115.553 259.865 118.205C259.865 119.225 259.366 120.317 258.629 121.151C257.899 121.979 256.912 122.571 255.921 122.612H255.91L255.872 122.613L255.805 122.617C254.847 122.617 253.821 122.112 253.034 121.367C252.247 120.622 251.68 119.619 251.637 118.623H251.639L251.637 118.611L251.636 118.568L251.632 118.504C251.632 115.647 253.398 113.205 255.039 110.933" fill="#03124D"/>
<path d="M255.882 111.808C254.39 113.877 252.835 116.097 252.835 118.504L252.832 118.54L252.833 118.575C252.861 119.246 253.277 119.954 253.855 120.499C254.432 121.045 255.157 121.416 255.805 121.416L255.843 121.417H255.875V121.416C256.521 121.39 257.201 120.961 257.733 120.359C258.287 119.73 258.663 118.929 258.663 118.205C258.663 115.918 257.271 113.855 255.882 111.808Z" fill="#FA2811"/>
<path d="M224.514 115.472L224.62 114.37C224.62 114.307 224.633 114.241 224.661 114.179C224.771 113.93 225.062 113.817 225.311 113.927C225.789 114.136 226.235 114.328 226.678 114.519C230.98 116.376 235.313 118.245 237.673 122.106C238.542 123.529 238.747 125.509 238.384 127.343C238.029 129.145 237.119 130.831 235.753 131.746L235.595 131.849L235.593 131.848C234.22 132.687 232.309 132.887 230.53 132.544C228.741 132.202 227.063 131.308 226.164 129.964L226.159 129.956L226.1 129.862L226.068 129.817C223.529 125.662 224.039 120.381 224.514 115.472" fill="#03124D"/>
<path d="M225.538 115.102L225.494 115.564C225.034 120.314 224.539 125.423 226.912 129.301L226.926 129.329L226.984 129.418C227.727 130.53 229.166 131.279 230.716 131.576C232.274 131.875 233.924 131.714 235.08 131.008L235.079 131.007L235.207 130.926C236.343 130.167 237.109 128.717 237.417 127.152C237.735 125.543 237.568 123.829 236.83 122.622C234.632 119.026 230.444 117.218 226.285 115.424L225.538 115.102Z" fill="white"/>
<path d="M227.852 120.509L227.891 120.015C227.891 119.948 227.905 119.88 227.935 119.817C228.048 119.568 228.34 119.458 228.588 119.572L229.211 119.857L229.21 119.858C231.209 120.765 233.222 121.68 234.359 123.542C234.798 124.258 234.917 125.239 234.757 126.14C234.598 127.035 234.162 127.874 233.484 128.327L233.475 128.333L233.45 128.349L233.405 128.381C232.731 128.792 231.794 128.878 230.923 128.693C230.051 128.508 229.222 128.047 228.765 127.365L228.759 127.357L228.74 127.329L228.71 127.284C227.485 125.28 227.675 122.807 227.852 120.509Z" fill="#03124D"/>
<path d="M228.821 120.761C228.66 122.853 228.521 125.079 229.553 126.768L229.569 126.795L229.583 126.819C229.892 127.279 230.486 127.597 231.127 127.732C231.765 127.868 232.434 127.817 232.89 127.537L232.916 127.523L232.938 127.508C233.38 127.212 233.673 126.619 233.788 125.97C233.909 125.289 233.828 124.566 233.517 124.057C232.536 122.451 230.673 121.601 228.821 120.761" fill="#FA2811"/>
<path d="M208.079 129.611L208.035 128.508C208.028 128.443 208.032 128.377 208.05 128.311C208.126 128.049 208.399 127.898 208.661 127.974C209.163 128.117 209.63 128.247 210.095 128.377C214.607 129.638 219.153 130.907 222.011 134.416C223.065 135.708 223.533 137.641 223.421 139.508C223.31 141.343 222.637 143.136 221.405 144.225L221.263 144.349L221.261 144.348C220.014 145.363 218.147 145.818 216.338 145.721C214.52 145.621 212.737 144.961 211.665 143.75L211.659 143.743L211.587 143.658L211.549 143.618C208.473 139.842 208.27 134.541 208.079 129.611" fill="#03124D"/>
<path d="M209.044 129.107L209.062 129.572C209.247 134.34 209.444 139.469 212.316 142.993L212.334 143.019L212.403 143.099H212.404C213.289 144.1 214.817 144.649 216.392 144.735C217.975 144.822 219.589 144.441 220.64 143.585L220.638 143.584L220.754 143.487C221.779 142.581 222.341 141.043 222.437 139.449C222.535 137.812 222.14 136.137 221.246 135.04C218.583 131.772 214.19 130.545 209.828 129.327L209.044 129.107" fill="white"/>
<path d="M212.065 134.153L212.036 133.66C212.028 133.593 212.033 133.523 212.053 133.456C212.132 133.195 212.408 133.048 212.669 133.127L213.323 133.325V133.326C215.426 133.957 217.544 134.592 218.922 136.283C219.452 136.934 219.702 137.891 219.665 138.805C219.629 139.713 219.308 140.603 218.697 141.144V141.143L218.69 141.15L218.667 141.171L218.625 141.208C218.015 141.706 217.098 141.917 216.209 141.851C215.319 141.784 214.437 141.439 213.891 140.826L213.885 140.817L213.864 140.792L213.827 140.752C212.343 138.93 212.198 136.455 212.065 134.153" fill="#03124D"/>
<path d="M213.059 134.273C213.182 136.369 213.343 138.592 214.593 140.127L214.611 140.153L214.63 140.175C214.997 140.587 215.63 140.823 216.281 140.871C216.932 140.92 217.588 140.778 218.002 140.441L218.027 140.422L218.046 140.405C218.445 140.053 218.655 139.425 218.681 138.766C218.709 138.077 218.532 137.37 218.156 136.909C216.967 135.45 215.007 134.857 213.059 134.273" fill="#FA2811"/>
<path d="M285.554 115.701L285.449 114.601C285.447 114.536 285.434 114.471 285.406 114.409C285.296 114.16 285.006 114.046 284.756 114.156C284.278 114.366 283.833 114.557 283.389 114.75C279.088 116.605 274.754 118.474 272.394 122.336C271.525 123.759 271.32 125.736 271.682 127.573C272.038 129.375 272.948 131.062 274.316 131.975L274.474 132.079V132.077C275.848 132.916 277.758 133.116 279.537 132.775C281.326 132.432 283.004 131.538 283.903 130.194L283.908 130.185L283.969 130.091L283.999 130.046C286.539 125.892 286.029 120.61 285.554 115.701" fill="#03124D"/>
<path d="M284.529 115.331L284.575 115.795C285.033 120.543 285.527 125.652 283.155 129.532L283.141 129.559L283.085 129.648H283.084C282.34 130.759 280.901 131.508 279.352 131.807C277.794 132.104 276.143 131.944 274.987 131.237L274.988 131.235L274.862 131.156C273.723 130.396 272.959 128.947 272.65 127.381C272.333 125.772 272.499 124.059 273.237 122.851C275.435 119.256 279.625 117.449 283.782 115.654L284.529 115.331Z" fill="white"/>
<path d="M282.214 120.738L282.178 120.245C282.176 120.177 282.162 120.109 282.134 120.046C282.02 119.797 281.727 119.689 281.479 119.802L280.856 120.086V120.087C278.859 120.995 276.845 121.91 275.708 123.772C275.27 124.487 275.152 125.47 275.31 126.369C275.469 127.265 275.907 128.103 276.583 128.558V128.557L276.592 128.563L276.618 128.578L276.663 128.61C277.337 129.022 278.273 129.107 279.145 128.923C280.017 128.738 280.846 128.277 281.304 127.595H281.302L281.307 127.587L281.327 127.558L281.357 127.513C282.582 125.509 282.392 123.036 282.214 120.738Z" fill="#03124D"/>
<path d="M281.246 120.99C281.407 123.083 281.546 125.309 280.515 126.998L280.499 127.024L280.483 127.049C280.176 127.508 279.581 127.826 278.941 127.961C278.302 128.098 277.634 128.046 277.178 127.768L277.151 127.753L277.129 127.739V127.737C276.688 127.442 276.394 126.85 276.28 126.199C276.16 125.52 276.239 124.795 276.551 124.287C277.532 122.681 279.396 121.832 281.246 120.99" fill="#FA2811"/>
<path d="M301.989 129.841L302.033 128.736C302.04 128.672 302.035 128.606 302.017 128.541C301.941 128.28 301.668 128.127 301.406 128.203C300.905 128.346 300.438 128.477 299.972 128.608C295.459 129.868 290.914 131.136 288.057 134.645C287.003 135.937 286.534 137.87 286.646 139.738C286.756 141.572 287.43 143.365 288.663 144.455L288.805 144.579L288.806 144.577C290.054 145.593 291.921 146.048 293.73 145.95C295.547 145.851 297.332 145.191 298.404 143.98L298.409 143.972L298.48 143.888L298.518 143.848C301.594 140.072 301.799 134.77 301.989 129.841" fill="#03124D"/>
<path d="M301.024 129.337L301.005 129.801C300.822 134.57 300.623 139.698 297.751 143.223L297.733 143.248L297.664 143.329C296.778 144.331 295.252 144.879 293.675 144.965C292.092 145.051 290.478 144.671 289.428 143.815L289.429 143.813L289.313 143.716C288.289 142.81 287.726 141.272 287.631 139.679C287.532 138.042 287.928 136.366 288.822 135.27C291.483 132.002 295.878 130.774 300.239 129.556L301.024 129.337" fill="white"/>
<path d="M298.003 134.383L298.032 133.889C298.04 133.822 298.035 133.754 298.014 133.685C297.935 133.426 297.659 133.277 297.4 133.356L296.744 133.554L296.745 133.556C294.642 134.187 292.524 134.822 291.145 136.514C290.615 137.164 290.366 138.121 290.402 139.035C290.438 139.943 290.76 140.832 291.369 141.373H291.37L291.377 141.379L291.401 141.4L291.442 141.437C292.052 141.935 292.969 142.146 293.859 142.08C294.748 142.015 295.631 141.668 296.176 141.055L296.181 141.048L296.204 141.021L296.241 140.981C297.725 139.159 297.869 136.685 298.003 134.383" fill="#03124D"/>
<path d="M297.01 134.502C296.887 136.598 296.726 138.823 295.475 140.356L295.457 140.381L295.437 140.404C295.072 140.816 294.439 141.053 293.787 141.1C293.136 141.149 292.48 141.007 292.066 140.671L292.041 140.653L292.021 140.636C291.624 140.282 291.413 139.655 291.386 138.995C291.359 138.306 291.536 137.6 291.912 137.137C293.101 135.679 295.062 135.086 297.01 134.502" fill="#FA2811"/>
<path d="M245.548 222.932C243.358 222.52 241.214 221.984 239.158 221.346C235.362 220.166 231.865 218.641 228.962 216.922C227.698 216.26 226.427 215.548 225.144 214.783C222.462 214.494 219.022 214.259 215.848 214.107C212.332 213.939 209.143 213.871 207.673 213.951C207.064 213.982 206.398 214.045 205.667 214.109C201.161 214.521 194.275 215.148 187.407 210.912C187.2 210.799 187.071 210.57 187.096 210.321C187.13 209.993 187.428 209.755 187.756 209.789C195.255 210.593 199.253 209.971 201.559 209.613C202.42 209.479 203.057 209.379 203.588 209.395C203.932 209.404 204.548 209.406 205.354 209.406C208.325 209.407 213.872 209.411 218.13 209.891C216.262 208.752 213.725 207.972 210.567 207.507C206.212 206.865 200.703 206.827 194.158 207.278C193.297 207.337 192.36 207.421 191.427 207.503C184.561 208.11 177.692 208.716 171.147 201.964H171.149C171.001 201.813 170.939 201.589 171.004 201.373C171.1 201.058 171.434 200.879 171.75 200.974C179.004 203.193 185.07 202.709 191.423 202.203C192.173 202.142 192.926 202.083 193.772 202.02C197.922 201.716 201.754 201.903 205.336 202.454C208.233 202.898 210.969 203.581 213.579 204.433C211.511 201.992 208.465 200.11 204.404 198.896C199.697 197.488 193.636 196.975 186.159 197.523C181.303 197.878 175.719 198.035 170.629 196.944C165.46 195.837 160.808 193.452 157.924 188.716H157.925C157.824 188.551 157.804 188.339 157.893 188.151C158.033 187.853 158.39 187.722 158.688 187.862C162.725 189.761 167.116 190.737 171.506 191.238C175.928 191.744 180.341 191.769 184.394 191.767C188.542 191.764 192.689 191.914 196.915 192.632C200.707 193.277 204.562 194.376 208.537 196.227C207.2 193.92 204.212 191.888 199.694 190.269C194.351 188.352 186.915 187.041 177.577 186.553C176.237 186.484 174.889 186.447 173.52 186.411C164.319 186.163 154.183 185.889 148.967 176.178C148.862 176.011 148.842 175.797 148.933 175.605C149.074 175.307 149.431 175.178 149.73 175.319C153.881 177.289 158.305 178.442 162.821 179.064C167.36 179.688 171.994 179.78 176.543 179.628C181.543 179.461 186.432 180.344 191.278 181.911C195.593 183.306 199.867 185.241 204.158 187.46C202.497 184.748 198.422 181.477 192.71 179.068C187.407 176.829 180.71 175.361 173.239 175.802C166.408 176.205 158.336 175.712 151.718 172.772C146.642 170.515 142.423 166.829 140.263 161.026C140.206 160.872 140.211 160.695 140.292 160.54C140.445 160.247 140.807 160.133 141.1 160.286C145.544 162.611 150.654 164.87 155.869 166.349C160.054 167.537 164.302 168.22 168.319 168.028C175.193 167.699 181.219 168.439 187.105 170.537C192.529 172.472 197.826 175.556 203.555 180.017C202.252 176.773 198.559 172.565 192.133 168.999C186.457 165.849 178.675 163.229 168.555 162.242C166.794 162.072 164.906 161.962 162.973 161.848C150.455 161.12 136.095 160.282 134.143 141.673H134.144C134.126 141.495 134.187 141.311 134.326 141.178C134.565 140.95 134.945 140.96 135.173 141.2C140.291 146.553 144.192 149.738 148.454 151.658C152.714 153.574 157.381 154.249 164.028 154.58C174.268 155.09 181.994 156.742 188.207 159.626C193.852 162.247 198.237 165.878 202.104 170.584C201.475 165.884 198.639 161.36 193.179 157.505C187.563 153.54 179.191 150.289 167.621 148.278C165.314 147.877 162.797 147.604 160.206 147.325C146.297 145.818 130.273 144.083 131.951 121.854C131.964 121.694 132.04 121.538 132.177 121.429C132.435 121.224 132.813 121.267 133.018 121.527C138.18 128.024 143.789 132.326 149.809 135.191V135.192C155.839 138.061 162.295 139.496 169.136 140.255C177.364 141.168 183.945 143.202 189.32 146.051C194.1 148.582 197.928 151.759 201.118 155.365C200.527 151.425 197.923 147.364 193.791 143.788C189.151 139.772 182.6 136.385 174.815 134.462C171.235 133.578 167.237 133.055 163.155 132.522C151.822 131.041 139.86 129.476 133.968 119.959C132.441 117.494 131.46 114.538 131.127 110.88L131.125 110.857C130.797 107.231 131.107 102.911 132.162 97.6891C132.795 94.5487 133.803 92.5494 134.85 91.6409C135.388 91.1765 135.952 90.9655 136.508 91.0046C137.074 91.0436 137.597 91.3326 138.041 91.8641C138.866 92.8515 139.456 94.7875 139.518 97.5964C140.026 120.155 158.286 122.339 172.697 124.064L173.213 124.125C182.739 125.266 191.156 128.386 197.062 133.147C202.621 137.627 205.961 143.555 205.939 150.658V150.681V150.69C205.787 157.508 205.787 164.044 206.273 170.151C206.756 176.222 207.72 181.852 209.494 186.886C211.26 191.893 213.272 197.017 215.884 201.623C218.474 206.194 221.657 210.269 225.776 213.239C225.798 213.254 225.818 213.267 225.838 213.284C226.907 214.18 228.152 215.049 229.539 215.873C233.587 217.992 237.533 219.583 241.383 220.69C242.956 221.142 244.51 221.513 246.05 221.807C249.275 222.397 252.593 222.707 255.844 222.658C255.871 222.654 255.899 222.653 255.927 222.653H255.93L255.942 222.654L255.999 222.655L256.057 222.654L256.07 222.653H256.073C256.101 222.653 256.128 222.654 256.155 222.658C259.407 222.707 262.724 222.397 265.951 221.807C267.489 221.513 269.043 221.142 270.615 220.69C274.465 219.583 278.413 217.992 282.46 215.873C283.848 215.049 285.093 214.18 286.162 213.284C286.18 213.267 286.201 213.254 286.223 213.239C290.342 210.269 293.526 206.194 296.116 201.623C298.726 197.017 300.74 191.893 302.504 186.886C304.28 181.852 305.243 176.222 305.727 170.151C306.212 164.044 306.212 157.508 306.06 150.69V150.681V150.658C306.039 143.555 309.379 137.627 314.937 133.147C320.843 128.386 329.26 125.266 338.787 124.125L339.302 124.064C353.713 122.339 371.975 120.155 372.48 97.5964C372.543 94.7875 373.133 92.8515 373.96 91.8641C374.403 91.3326 374.927 91.0436 375.489 91.0046C376.048 90.9655 376.613 91.1765 377.149 91.6409C378.198 92.5494 379.206 94.5487 379.836 97.6891C380.891 102.911 381.204 107.231 380.876 110.857L380.873 110.88C380.539 114.538 379.559 117.494 378.033 119.959C372.14 129.476 360.177 131.041 348.844 132.522C344.764 133.055 340.763 133.578 337.184 134.462C329.4 136.385 322.848 139.772 318.208 143.788C314.076 147.364 311.471 151.425 310.882 155.365C314.072 151.759 317.898 148.582 322.68 146.051C328.055 143.202 334.635 141.168 342.863 140.255C349.705 139.496 356.161 138.061 362.19 135.192V135.191C368.211 132.326 373.819 128.024 378.981 121.527C379.187 121.267 379.565 121.224 379.824 121.429C379.958 121.538 380.036 121.694 380.049 121.854C381.728 144.083 365.705 145.818 351.794 147.325C349.203 147.604 346.686 147.877 344.379 148.278C332.807 150.289 324.437 153.54 318.82 157.505C313.36 161.36 310.525 165.884 309.895 170.584C313.763 165.878 318.148 162.247 323.793 159.626C330.005 156.742 337.734 155.09 347.973 154.58C354.618 154.249 359.285 153.574 363.545 151.658C367.808 149.738 371.709 146.553 376.828 141.2C377.056 140.96 377.433 140.95 377.674 141.178C377.814 141.311 377.873 141.495 377.855 141.673C375.904 160.282 361.544 161.12 349.027 161.848C347.094 161.962 345.206 162.072 343.446 162.242C333.325 163.229 325.541 165.849 319.867 168.999C313.441 172.565 309.747 176.773 308.445 180.017C314.173 175.556 319.471 172.472 324.894 170.537C330.781 168.439 336.806 167.699 343.681 168.028C347.698 168.22 351.946 167.537 356.13 166.349C361.345 164.87 366.457 162.611 370.898 160.286C371.191 160.133 371.553 160.247 371.706 160.54C371.791 160.695 371.794 160.872 371.738 161.026C369.578 166.829 365.358 170.515 360.28 172.772C353.663 175.712 345.592 176.205 338.763 175.802C331.291 175.361 324.593 176.829 319.288 179.068C313.577 181.477 309.504 184.748 307.841 187.46C312.132 185.241 316.407 183.306 320.722 181.911C325.568 180.344 330.456 179.461 335.456 179.628C340.005 179.78 344.641 179.688 349.179 179.064C353.695 178.442 358.118 177.289 362.268 175.319C362.568 175.178 362.927 175.307 363.067 175.605C363.158 175.797 363.136 176.011 363.033 176.178C357.815 185.889 347.679 186.163 338.479 186.411C337.111 186.447 335.763 186.484 334.421 186.553C325.084 187.041 317.649 188.352 312.305 190.269C307.788 191.888 304.8 193.92 303.463 196.227C307.438 194.376 311.293 193.277 315.084 192.632C319.31 191.914 323.457 191.764 327.607 191.767C331.658 191.769 336.071 191.744 340.494 191.238C344.883 190.737 349.276 189.761 353.312 187.862C353.611 187.722 353.967 187.853 354.107 188.151C354.194 188.339 354.176 188.551 354.075 188.716H354.076C351.192 193.452 346.538 195.837 341.372 196.944C336.279 198.035 330.697 197.878 325.841 197.523C318.364 196.975 312.303 197.488 307.594 198.896C303.533 200.11 300.489 201.992 298.42 204.433C301.029 203.581 303.766 202.898 306.663 202.454C310.245 201.903 314.078 201.716 318.228 202.02C319.074 202.083 319.826 202.142 320.577 202.203C326.93 202.709 332.996 203.193 340.249 200.974C340.566 200.879 340.9 201.058 340.995 201.373C341.061 201.589 340.997 201.813 340.852 201.964C334.309 208.716 327.44 208.11 320.573 207.503C319.64 207.421 318.703 207.337 317.841 207.278C311.296 206.827 305.788 206.865 301.432 207.507C298.274 207.972 295.737 208.752 293.868 209.891C298.128 209.411 303.674 209.407 306.646 209.406C307.452 209.406 308.066 209.404 308.411 209.395C308.941 209.379 309.58 209.479 310.44 209.613C312.748 209.971 316.744 210.593 324.244 209.789C324.573 209.755 324.868 209.993 324.902 210.321C324.929 210.57 324.799 210.799 324.593 210.912C317.727 215.148 310.838 214.521 306.331 214.109C305.601 214.045 304.935 213.982 304.327 213.951C302.857 213.871 299.667 213.939 296.152 214.107C292.977 214.259 289.538 214.494 286.855 214.783C285.573 215.548 284.3 216.26 283.039 216.922C280.134 218.641 276.638 220.166 272.842 221.346C270.786 221.984 268.64 222.52 266.451 222.932C262.888 223.632 259.405 223.926 255.999 223.851C252.595 223.926 249.112 223.632 245.548 222.932" fill="#231F20"/>
<path d="M224.1 213.474C220.293 210.472 217.303 206.556 214.842 202.214C212.185 197.523 210.146 192.343 208.364 187.284C206.551 182.14 205.567 176.411 205.077 170.246C204.591 164.117 204.591 157.538 204.743 150.668C204.768 143.956 201.594 138.337 196.312 134.08C190.582 129.462 182.381 126.43 173.072 125.316L172.558 125.255C157.691 123.476 138.853 121.222 138.322 97.6198C138.266 95.1058 137.787 93.4308 137.121 92.6334C136.895 92.3628 136.658 92.2152 136.429 92.2005C136.19 92.1836 135.919 92.2982 135.633 92.5469C134.767 93.2978 133.91 95.0656 133.335 97.9231C132.304 103.03 131.999 107.237 132.316 110.75V110.757C132.629 114.224 133.552 117.014 134.985 119.331C140.579 128.363 152.251 129.89 163.31 131.336C167.431 131.874 171.472 132.403 175.102 133.299C183.074 135.268 189.798 138.751 194.574 142.884C199.595 147.228 202.479 152.31 202.44 157.148C202.438 157.478 202.167 157.744 201.837 157.741C201.653 157.74 201.487 157.653 201.378 157.521V157.522C198.057 153.455 193.998 149.885 188.762 147.11C183.512 144.328 177.073 142.341 169.004 141.446C162.042 140.675 155.461 139.208 149.296 136.275L149.293 136.273V136.275C143.496 133.516 138.077 129.465 133.062 123.476C132.323 143.097 147.293 144.722 160.332 146.133C162.95 146.415 165.493 146.691 167.823 147.096C179.581 149.14 188.117 152.464 193.868 156.523C200.404 161.136 203.38 166.713 203.436 172.471C203.439 172.801 203.173 173.071 202.842 173.073C202.647 173.076 202.472 172.983 202.362 172.839C198.312 167.535 193.749 163.521 187.704 160.715C181.631 157.894 174.045 156.277 163.97 155.776C157.173 155.437 152.382 154.741 147.962 152.751C143.908 150.925 140.198 148.025 135.572 143.331C138.144 159.201 151.416 159.976 163.038 160.652C164.968 160.765 166.853 160.876 168.666 161.051C178.971 162.055 186.912 164.733 192.714 167.951C200.702 172.385 204.679 177.898 205.222 181.549C205.271 181.876 205.044 182.183 204.716 182.229C204.535 182.256 204.359 182.197 204.232 182.085C198.056 177.094 192.445 173.716 186.707 171.67C180.97 169.623 175.09 168.902 168.375 169.224C164.215 169.424 159.841 168.722 155.545 167.503C150.81 166.159 146.161 164.184 142.008 162.096C144.174 166.712 147.852 169.746 152.202 171.679C158.611 174.526 166.487 175.001 173.168 174.605C180.838 174.152 187.719 175.662 193.175 177.964C200.34 180.989 205.087 185.429 206.004 188.639C206.093 188.957 205.91 189.29 205.591 189.38C205.436 189.424 205.277 189.404 205.145 189.333C200.378 186.799 195.652 184.584 190.912 183.05C186.185 181.523 181.43 180.664 176.58 180.824C171.972 180.978 167.272 180.884 162.661 180.25C158.655 179.699 154.717 178.739 150.967 177.18C156.096 184.744 165.22 184.99 173.548 185.215C174.95 185.251 176.334 185.288 177.638 185.357C187.092 185.851 194.645 187.187 200.097 189.143C205.894 191.221 209.368 194.029 210.291 197.305C210.38 197.623 210.194 197.954 209.876 198.043C209.725 198.086 209.572 198.066 209.443 198.001H209.442C205.067 195.777 200.853 194.516 196.719 193.814C192.562 193.107 188.479 192.96 184.393 192.963C180.295 192.965 175.833 192.94 171.368 192.429C167.568 191.995 163.757 191.209 160.148 189.794C162.844 193.09 166.676 194.871 170.877 195.771C175.828 196.832 181.304 196.675 186.073 196.327C193.698 195.768 199.903 196.298 204.747 197.746C209.904 199.289 213.534 201.876 215.707 205.305C215.884 205.584 215.801 205.954 215.52 206.132C215.347 206.242 215.139 206.252 214.962 206.176C211.893 205.063 208.647 204.176 205.158 203.641C201.656 203.103 197.911 202.919 193.856 203.216C193.13 203.27 192.319 203.334 191.517 203.399C185.753 203.857 180.22 204.299 173.783 202.766C179.413 207.358 185.37 206.833 191.323 206.307C192.216 206.228 193.113 206.148 194.078 206.082C200.706 205.626 206.299 205.667 210.74 206.321C215.268 206.988 218.628 208.301 220.704 210.385C220.937 210.62 220.936 210.999 220.702 211.232C220.557 211.375 220.357 211.431 220.17 211.397L220.166 211.395L220.16 211.394C215.936 210.608 208.847 210.603 205.354 210.602C204.53 210.602 203.9 210.601 203.556 210.591C203.129 210.579 202.538 210.671 201.742 210.793C199.701 211.113 196.369 211.631 190.584 211.24C196.254 213.767 201.776 213.264 205.56 212.919C206.322 212.85 207.017 212.785 207.613 212.755C209.118 212.674 212.352 212.74 215.904 212.911C218.66 213.043 221.611 213.238 224.1 213.474" fill="#03124D"/>
<path d="M287.898 213.474C291.705 210.472 294.695 206.556 297.157 202.214C299.814 197.523 301.853 192.343 303.636 187.284C305.448 182.14 306.432 176.411 306.922 170.246C307.41 164.117 307.41 157.538 307.255 150.668C307.23 143.956 310.405 138.337 315.687 134.08C321.416 129.462 329.619 126.43 338.927 125.316L339.441 125.255C354.31 123.476 373.144 121.222 373.675 97.6198C373.734 95.1058 374.212 93.4308 374.877 92.6334C375.104 92.3628 375.342 92.2152 375.569 92.2005C375.807 92.1836 376.081 92.2982 376.365 92.5469C377.233 93.2978 378.088 95.0656 378.662 97.9231C379.695 103.03 380.001 107.237 379.683 110.75V110.757C379.371 114.224 378.447 117.014 377.011 119.331C371.422 128.363 359.746 129.89 348.688 131.336C344.566 131.874 340.527 132.403 336.897 133.299C328.925 135.268 322.201 138.751 317.425 142.884C312.404 147.228 309.519 152.31 309.559 157.148C309.56 157.478 309.832 157.744 310.161 157.741C310.348 157.74 310.512 157.653 310.621 157.521L310.622 157.522C313.942 153.455 318 149.885 323.238 147.11C328.487 144.328 334.925 142.341 342.994 141.446C349.956 140.675 356.538 139.208 362.705 136.275V136.273V136.275C368.5 133.516 373.922 129.465 378.937 123.476C379.677 143.097 364.705 144.722 351.667 146.133C349.049 146.415 346.505 146.691 344.176 147.096C332.416 149.14 323.882 152.464 318.13 156.523C311.594 161.136 308.619 166.713 308.563 172.471C308.56 172.801 308.825 173.071 309.155 173.073C309.351 173.076 309.526 172.983 309.636 172.839H309.637C313.687 167.535 318.249 163.521 324.293 160.715C330.367 157.894 337.952 156.277 348.029 155.776C354.825 155.437 359.615 154.741 364.037 152.751C368.092 150.925 371.799 148.025 376.425 143.331C373.856 159.201 360.582 159.976 348.96 160.652C347.03 160.765 345.145 160.876 343.333 161.051C333.029 162.055 325.086 164.733 319.285 167.951C311.299 172.385 307.319 177.898 306.776 181.549C306.728 181.876 306.955 182.183 307.282 182.229C307.465 182.256 307.639 182.197 307.767 182.085C313.943 177.094 319.555 173.716 325.292 171.67C331.029 169.623 336.908 168.902 343.624 169.224C347.782 169.424 352.158 168.722 356.453 167.503C361.188 166.159 365.838 164.184 369.989 162.096C367.826 166.712 364.147 169.746 359.799 171.679C353.388 174.526 345.511 175.001 338.832 174.605C331.161 174.152 324.28 175.662 318.823 177.964C311.659 180.989 306.911 185.429 305.995 188.639C305.905 188.957 306.09 189.29 306.409 189.38C306.563 189.424 306.721 189.404 306.854 189.333H306.855C311.622 186.799 316.346 184.584 321.086 183.05C325.812 181.523 330.568 180.664 335.418 180.824C340.026 180.978 344.727 180.884 349.337 180.25C353.343 179.699 357.28 178.739 361.032 177.18C355.901 184.744 346.779 184.99 338.451 185.215C337.048 185.251 335.665 185.288 334.36 185.357C324.906 185.851 317.353 187.187 311.902 189.143C306.104 191.221 302.63 194.029 301.708 197.305C301.619 197.623 301.804 197.954 302.123 198.043C302.273 198.086 302.427 198.066 302.556 198.001C306.932 195.777 311.148 194.516 315.28 193.814C319.436 193.107 323.52 192.96 327.606 192.963C331.703 192.965 336.165 192.94 340.63 192.429C344.431 191.995 348.242 191.209 351.851 189.794C349.154 193.09 345.323 194.871 341.121 195.771C336.171 196.832 330.696 196.675 325.925 196.327C318.301 195.768 312.096 196.298 307.252 197.746C302.095 199.289 298.464 201.876 296.292 205.305C296.115 205.584 296.198 205.954 296.478 206.132C296.651 206.242 296.86 206.252 297.036 206.176C300.105 205.063 303.352 204.176 306.842 203.641C310.343 203.103 314.088 202.919 318.142 203.216C318.868 203.27 319.68 203.334 320.481 203.399C326.246 203.857 331.779 204.299 338.215 202.766C332.586 207.358 326.629 206.833 320.676 206.307C319.783 206.228 318.886 206.148 317.921 206.082C311.292 205.626 305.7 205.667 301.258 206.321C296.731 206.988 293.371 208.301 291.295 210.385C291.062 210.62 291.062 210.999 291.298 211.232C291.441 211.375 291.641 211.431 291.828 211.397L291.833 211.395L291.837 211.394C296.063 210.608 303.152 210.603 306.645 210.602C307.469 210.602 308.1 210.601 308.443 210.591C308.87 210.579 309.46 210.671 310.257 210.793C312.298 211.113 315.63 211.631 321.415 211.24C315.744 213.767 310.222 213.264 306.439 212.919C305.677 212.85 304.982 212.785 304.386 212.755C302.88 212.674 299.647 212.74 296.094 212.911C293.34 213.043 290.388 213.238 287.898 213.474" fill="#03124D"/>
<path d="M124.532 254.06H139.398L159.979 305.334L169.631 254.06H184.264L169.776 328.901H154.053L134.426 278.351L124.489 328.901H109.428L124.532 254.06ZM214.328 420.619L242.954 276.304H257.622L256.706 282.262C263.685 274.817 267.442 274.43 272.685 274.029C283.523 273.203 293.115 282.609 291.752 301.591C290.528 318.611 279.297 330.249 266.205 331.204C260.189 331.642 253.904 329.833 248.296 325.272L229.754 420.619H214.328ZM252.289 300.961C248.945 312.857 254.436 319.291 261.496 320.183C268.121 321.02 274.637 314.828 276.704 303.648C278.772 292.468 273.86 286.207 267.991 286.207C262.434 286.207 255.634 289.067 252.289 300.961V300.961ZM315.471 290.54L301.335 290.551C304.034 278.56 315.379 273.163 327.26 273.339C341.985 273.557 351.739 278.589 348.027 296.129L343.681 316.664C343.143 319.218 342.867 321.233 342.844 322.687C342.82 324.139 342.077 326.642 342.56 328.901H328.464C327.708 326.187 327.783 325.609 327.992 322.816C324.723 326.4 317.256 329.526 310.275 329.551C302.426 329.577 294.595 325.667 295.199 314.11C296.367 291.775 322.521 297.89 330.993 294.004C340.262 289.751 333.688 282.288 326.553 282.737C322.832 282.972 316.778 284.29 315.471 290.54V290.54ZM332.571 301.693C326.598 303.971 310.367 301.659 309.542 311.689C309.117 316.863 313.679 319.122 317.504 319.122C324.635 319.122 331.828 311.639 332.571 301.693V301.693ZM363.95 254.998H377.997L362.566 328.901H349.577L363.95 254.998ZM132.28 361.474L117.542 391.901H135.827L132.28 361.474ZM111.758 403.842L103.632 420.619H86L126.497 345.34H144.18L154.768 420.619H139.176L137.22 403.842H111.758ZM167.871 367.179H182.506L171.256 420.619H157.246L167.871 367.179ZM172.362 345.34H186.788L184.48 357.477H170.053L172.362 345.34ZM247.061 367.179H261.699L250.446 420.619H236.438L247.061 367.179ZM251.552 345.34H265.981L263.672 357.477H249.244L251.552 345.34ZM190.697 367.348L204.109 367.179L202.665 375.088C207.054 367.659 211.59 367.179 219.823 367.179L216.472 382.238C210.571 381.262 202.663 381.985 200.587 391.262L194.013 420.619H179.523L190.697 367.348ZM375.726 401.286L388.632 401.426C387.09 414.763 405.041 410.961 406.557 405.056C408.353 398.07 398.559 396.353 395.785 394.828C389.109 391.157 380.957 388.803 381.807 379.647C383.791 358.303 424.627 358.267 426 379.282L413.391 379.351C413.395 378.553 411.764 372.195 404.539 372.614C396.197 373.097 393.854 381.004 406.053 385.128C417.938 389.145 423.444 396.567 421.682 404.167C418.858 416.331 408.682 420.619 398.347 420.619C386.059 420.619 373.23 415.302 375.726 401.286V401.286ZM332.575 396.518C328.708 409.47 348.608 417.679 356.407 403.509L370.342 403.478C365.016 416.249 355.636 421.308 341.829 421.308C326.19 421.308 315.112 410.434 318.726 391.747C321.568 377.039 331.091 365.451 349.543 365.451C371.4 365.451 376.523 379.528 372.809 396.504L332.575 396.518ZM358.927 386.873C361.597 369.6 336.979 373.48 336.129 386.873H358.927ZM193.524 306.669C189.655 319.62 209.557 327.83 217.356 313.66L231.289 313.629C225.965 326.399 216.995 331.201 203.188 331.201C187.549 331.201 176.061 320.585 179.672 301.897C182.517 287.19 192.038 275.123 210.492 275.123C232.346 275.123 237.47 289.679 233.758 306.654L193.524 306.669ZM219.876 297.023C222.544 279.751 197.926 283.631 197.076 297.024L219.876 297.023ZM270.229 367.143L284.412 367.179L282.688 375.088C299.077 356.74 317.472 368.001 313.784 386.618L307.05 420.619H293.369L299.193 391.208C299.767 388.305 302.078 377.678 293.691 377.712C284.209 377.751 281.134 382.947 278.759 394.938L273.674 420.619H259.638L270.229 367.143" fill="#03124D"/>
</svg>
